<svg width="28" height="34" viewBox="0 0 28 34" fill="none" xmlns="http://www.w3.org/2000/svg">
<path d="M14.15 -0.0500488H14.05L0.550049 1.34995V26.05L14.05 34.0499L27.45 26.05V1.34995L14.15 -0.0500488ZM25.55 12.05L14.05 5.24995V5.14995H13.95L13.85 5.04995V5.14995L2.45005 12.05V3.04995L13.95 1.84995L25.55 3.04995V12.05ZM13.95 6.74995L25.45 13.45L20.95 16.05L13.85 11.85V13.25L19.75 16.75L18.85 17.25L13.85 14.25V15.65L17.65 17.95L16.85 18.45L13.85 16.65V18.05L15.75 19.15L13.95 20.25L2.55005 13.55L13.95 6.74995ZM2.45005 15.05L13.85 21.85V22.85L5.95005 18.15V19.55L13.95 24.35V25.45L5.95005 20.75V22.15L13.95 26.95L22.05 22.05V16.85L25.45 14.85V24.85L13.95 31.75L2.45005 24.95V15.05Z" fill="black"/>
</svg>
