<svg width="75" height="70" viewBox="0 0 75 70" fill="none" xmlns="http://www.w3.org/2000/svg">
<path fill-rule="evenodd" clip-rule="evenodd" d="M29.2628 63.128H45.1343V40.0275H29.2628V63.128ZM42.1584 60.325H32.1395V42.8305H42.1584V60.325Z" fill="#81B3D2"/>
<path fill-rule="evenodd" clip-rule="evenodd" d="M37.1988 33.8402C33.0325 33.8402 29.5606 30.4573 29.5606 26.3011C29.5606 22.145 32.9333 18.8587 37.1988 18.8587C41.4642 18.8587 44.9361 22.145 44.9361 26.3011C44.9361 30.4573 41.4642 33.8402 37.1988 33.8402ZM42.1586 26.3011C42.1586 23.5948 39.8771 21.4684 37.1988 21.4684C34.5205 21.4684 32.2389 23.6915 32.2389 26.3011C32.2389 29.0075 34.5205 31.1339 37.1988 31.1339C39.9763 31.1339 42.1586 28.9108 42.1586 26.3011Z" fill="#81B3D2"/>
<path d="M19.7401 40.0275H16.7642V43.7971H19.7401V40.0275Z" fill="#81B3D2"/>
<path d="M22.6168 40.0275H25.5927V43.7971H22.6168V40.0275Z" fill="#81B3D2"/>
<path d="M19.7401 45.8254H16.7642V49.5949H19.7401V45.8254Z" fill="#81B3D2"/>
<path d="M22.6168 45.8254H25.5927V49.5949H22.6168V45.8254Z" fill="#81B3D2"/>
<path d="M51.3842 40.0275H48.4083V43.7971H51.3842V40.0275Z" fill="#81B3D2"/>
<path d="M54.3601 40.0275H57.336V43.7971H54.3601V40.0275Z" fill="#81B3D2"/>
<path d="M51.3842 45.8254H48.4083V49.5949H51.3842V45.8254Z" fill="#81B3D2"/>
<path d="M54.3601 45.8254H57.336V49.5949H54.3601V45.8254Z" fill="#81B3D2"/>
<path fill-rule="evenodd" clip-rule="evenodd" d="M72.0169 38.093L74.1 36.0632L64.2795 26.4944V0.397726H50.5904V13.1561L37.0004 0.0111084L0 36.1599L2.08313 38.1896L9.82048 30.6506V67.186H5.95181V69.989H69.3386V67.186H64.2795V30.5539L72.0169 38.093ZM53.4671 3.29736H61.3036V23.6915L53.4671 16.0558V3.29736ZM61.3036 67.0893H12.7964V27.7509L37.0004 4.0706L61.3036 27.7509V67.0893Z" fill="#81B3D2"/>
</svg>
