<svg width="76" height="68" viewBox="0 0 76 68" fill="none" xmlns="http://www.w3.org/2000/svg">
<path d="M71.7113 45.1158H4.28871C1.89501 45.1158 0 47.0406 0 49.2542V52.6226C0 54.8361 1.89501 56.6647 4.28871 56.6647H5.28609V57.6271C5.28609 62.9204 9.77428 67.155 15.1601 67.155H60.8399C66.3255 67.155 70.7139 62.8241 70.7139 57.6271V56.6647H71.7113C74.0053 56.6647 76 54.8361 76 52.5264V49.1579C76 47.0406 74.105 45.1158 71.7113 45.1158ZM67.8215 57.6271C67.8215 61.2843 64.7297 64.2677 60.9396 64.2677H15.0604C11.2703 64.2677 8.17848 61.2843 8.17848 57.6271V56.6647H67.8215V57.6271ZM73.0079 52.5264C73.0079 53.2 72.4095 53.7775 71.7113 53.7775H4.28871C3.59055 53.7775 2.99213 53.2 2.99213 52.5264V49.1579C2.99213 48.5805 3.59055 48.003 4.28871 48.003H71.811C72.5092 48.003 73.1076 48.5805 73.1076 49.2542V52.5264H73.0079Z" fill="#81B3D2"/>
<path d="M16.1575 37.3198L21.5433 41.1694L27.0289 37.3198L32.5145 41.1694L38 37.3198L43.3859 41.1694L48.8714 37.3198L54.357 41.1694L59.8426 37.3198L65.3281 41.1694L71.6116 36.6461L69.916 34.3363L65.3281 37.5123L59.8426 33.6626L54.357 37.5123L48.8714 33.6626L43.3859 37.5123L38 33.6626L32.5145 37.5123L27.0289 33.6626L21.5433 37.5123L16.1575 33.6626L10.6719 37.5123L6.08402 34.3363L4.28875 36.6461L10.6719 41.1694L16.1575 37.3198Z" fill="#81B3D2"/>
<path d="M70.7139 30.7759C70.7139 30.1985 70.8137 28.2736 70.7139 27.8887C70.0158 12.8751 55.6536 0.844971 38 0.844971C20.3465 0.844971 5.88453 12.8751 5.18637 27.8887C5.18637 28.2736 5.18637 30.1985 5.18637 30.7759H70.7139ZM38 3.7322C53.958 3.7322 67.1234 14.5112 67.7218 27.8887H8.1785C8.87666 14.5112 22.042 3.7322 38 3.7322Z" fill="#81B3D2"/>
<path d="M38 17.206C39.1017 17.206 39.9947 16.3443 39.9947 15.2812C39.9947 14.2182 39.1017 13.3564 38 13.3564C36.8983 13.3564 36.0052 14.2182 36.0052 15.2812C36.0052 16.3443 36.8983 17.206 38 17.206Z" fill="#81B3D2"/>
<path d="M30.021 12.4894C31.1227 12.4894 32.0157 11.6277 32.0157 10.5646C32.0157 9.50157 31.1227 8.6398 30.021 8.6398C28.9193 8.6398 28.0262 9.50157 28.0262 10.5646C28.0262 11.6277 28.9193 12.4894 30.021 12.4894Z" fill="#81B3D2"/>
<path d="M45.979 12.4894C47.0807 12.4894 47.9737 11.6277 47.9737 10.5646C47.9737 9.50157 47.0807 8.6398 45.979 8.6398C44.8773 8.6398 43.9842 9.50157 43.9842 10.5646C43.9842 11.6277 44.8773 12.4894 45.979 12.4894Z" fill="#81B3D2"/>
</svg>
