<svg width="62" height="73" viewBox="0 0 62 73" fill="none" xmlns="http://www.w3.org/2000/svg">
<path d="M58.6978 21.291H58.6012H35.1498C48.2749 14.747 49.3365 10.6088 48.8539 8.29913C47.7924 4.54592 43.4495 1.65883 39.3962 3.19861C34.0882 5.21957 32.6406 13.1109 31.193 18.7889C29.3593 13.0147 27.6222 5.70075 23.4724 1.94754C22.3143 0.888939 20.5771 -0.169659 17.9714 0.0228134C14.1111 0.407758 8.61013 5.12333 10.9263 10.4163C13.0495 15.5168 20.0946 18.7889 24.8235 21.3873H3.3022C1.75807 21.3873 0.599976 22.6383 0.599976 24.0819V34.8603C0.599976 36.4001 1.85458 37.5549 3.3022 37.5549H3.59172V72.2H58.6012V37.5549H58.6978C60.2419 37.5549 61.4 36.3039 61.4 34.8603V24.0819C61.4 22.5421 60.1454 21.291 58.6978 21.291ZM40.9403 5.60452C42.967 5.31581 45.6692 6.85559 45.9587 8.68408C46.3447 11.2825 42.7739 13.6884 41.1333 14.747C38.7206 16.383 36.4044 17.2491 34.1847 18.5964C34.9568 15.0357 36.5974 6.18193 40.9403 5.60452ZM19.1295 15.0357C17.0063 13.5921 12.953 10.8013 13.0495 7.62548C13.146 4.16097 18.5505 1.37012 21.4457 3.9685C25.113 7.1443 26.8501 14.5545 28.2012 19.7512C25.113 18.2115 22.2178 17.0566 19.1295 15.0357ZM24.8235 69.3129H6.39045V37.5549H24.8235V69.3129ZM24.8235 34.6679H3.49521V24.1781H24.8235V34.6679ZM34.4743 69.3129H27.6222V24.1781H34.4743V69.3129ZM55.706 69.3129H37.3695V37.5549H55.8025V69.3129H55.706ZM58.5047 34.6679H37.3695V24.1781H58.5047V34.6679Z" fill="#81B3D2"/>
</svg>
