<svg width="19" height="16" viewBox="0 0 19 16" fill="none" xmlns="http://www.w3.org/2000/svg">
<path d="M11.9473 0.280727C13.7368 -0.245588 15.2105 0.491254 15.8421 1.43862C16.5789 1.2281 17.3158 0.912306 18.0526 0.70178C18.0526 1.54389 17.5263 2.28073 17.1052 2.49125C17.8421 2.70178 18.4737 1.96494 18.4737 1.96494C18.2631 3.01757 17.421 3.75441 16.7895 4.0702C16.5789 11.0176 13.3158 15.6491 5.84209 15.4386C5.31577 15.4386 5.94735 15.4386 5.31577 15.4386C4.89472 15.4386 0.789454 15.0176 0.0526123 13.5439C2.47366 13.7544 4.26314 13.1228 5.10524 12.386C4.05261 12.0702 2.15788 11.8597 1.84209 9.33336C2.26314 9.43862 2.47366 9.54389 3.21051 9.43862C1.94735 8.59652 0.473665 7.85967 0.578928 5.54389C0.894718 5.85967 1.73682 6.0702 2.05261 6.0702C1.31577 5.85967 -0.0526509 2.59652 1.10524 1.01757C3.10524 2.91231 5.10524 4.70178 8.89472 4.91231C8.99998 2.49125 10.0526 0.912306 11.9473 0.280727Z" fill="white"/>
</svg>
